<svg xmlns="http://www.w3.org/2000/svg" viewBox="0 0 500 500"><g id="freepik--Currency--inject-38"><path d="M141,190.16A37.91,37.91,0,1,1,91.7,169.34,37.87,37.87,0,0,1,141,190.16Z" style="fill:#90CAF9"></path><path d="M132.68,193.55a28.89,28.89,0,1,1-37.6-15.87A28.86,28.86,0,0,1,132.68,193.55Z" style="fill:#90CAF9"></path><path d="M132.68,193.55a4.23,4.23,0,0,1-.22-.41l-.61-1.24-.44-.9c-.18-.33-.4-.67-.63-1.05a20.74,20.74,0,0,0-1.68-2.52,27.5,27.5,0,0,0-5.84-5.87,28.79,28.79,0,0,0-9.83-4.76,28.41,28.41,0,0,0-13.17-.4A29.31,29.31,0,0,0,84,186.11c-.44.53-.83,1.1-1.26,1.66a15.87,15.87,0,0,0-1.15,1.74,31.33,31.33,0,0,0-2,3.77,30.57,30.57,0,0,0-1.36,4.12,27.33,27.33,0,0,0-.84,8.82,28.22,28.22,0,0,0,6.76,16.71,27.75,27.75,0,0,0,6.75,5.75,31.22,31.22,0,0,0,3.84,2,33.53,33.53,0,0,0,4,1.34,26.71,26.71,0,0,0,8.16.88,28.87,28.87,0,0,0,14.4-4.48,28.79,28.79,0,0,0,12.91-19.72,27.29,27.29,0,0,0,.12-8.28,20.47,20.47,0,0,0-.55-3c-.1-.43-.17-.83-.27-1.18s-.23-.67-.32-1c-.18-.55-.32-1-.42-1.31a2.2,2.2,0,0,1-.13-.45,2.29,2.29,0,0,1,.18.43c.12.32.28.74.48,1.29l.35.95c.11.36.2.76.31,1.19a19.93,19.93,0,0,1,.6,3,27.09,27.09,0,0,1,0,8.36,29.13,29.13,0,0,1-13,20.09A29.34,29.34,0,0,1,107,233.47a32.26,32.26,0,0,1-4.16-.11,31.81,31.81,0,0,1-4.17-.77,33.23,33.23,0,0,1-4.13-1.36,32.44,32.44,0,0,1-3.92-2,28.51,28.51,0,0,1-6.9-5.87,28.76,28.76,0,0,1-6.9-17.06,28.22,28.22,0,0,1,.86-9,27,27,0,0,1,3.42-8,13.39,13.39,0,0,1,1.18-1.78c.43-.56.83-1.14,1.28-1.68a30.19,30.19,0,0,1,2.9-3,29.36,29.36,0,0,1,13.73-6.88,29.08,29.08,0,0,1,23.3,5.39,27,27,0,0,1,5.83,6,18.75,18.75,0,0,1,1.65,2.57c.22.39.44.73.61,1.07s.29.64.41.92c.23.53.42,1,.55,1.26A2.78,2.78,0,0,1,132.68,193.55Z" style="fill:#263238"></path><g style="opacity:0.30000000000000004"><path d="M132.59,193.91c-.16.07-.75-1.06-2-2.93a30.62,30.62,0,0,0-6.38-7,29.63,29.63,0,0,0-5.49-3.45,28.56,28.56,0,0,0-7-2.3,25.39,25.39,0,0,0-4-.47,27.54,27.54,0,0,0-4.15.11,28.62,28.62,0,0,0-4.22.77,31.17,31.17,0,0,0-4.16,1.46,29.58,29.58,0,0,0-3.89,2.11,27.61,27.61,0,0,0-3.41,2.6,26.89,26.89,0,0,0-2.87,3,26.16,26.16,0,0,0-2.32,3.25,28.74,28.74,0,0,0-3,6.74,29.9,29.9,0,0,0-1.15,6.38,31,31,0,0,0,.86,9.41c.54,2.19,1,3.39.82,3.46s-.82-1-1.64-3.21A27.24,27.24,0,0,1,77,204.12a29.62,29.62,0,0,1,1-6.81A29.26,29.26,0,0,1,81,190a27.66,27.66,0,0,1,2.42-3.53,29,29,0,0,1,6.72-6.1,31.09,31.09,0,0,1,4.18-2.28,32,32,0,0,1,4.5-1.56,28.83,28.83,0,0,1,9-.87,27.58,27.58,0,0,1,4.24.58,29,29,0,0,1,7.43,2.67,29.5,29.5,0,0,1,5.67,3.88,26.7,26.7,0,0,1,6.12,7.73C132.38,192.61,132.7,193.86,132.59,193.91Z"></path></g><g style="opacity:0.30000000000000004"><path d="M115.4,219.14l2,4.64-4.14,1.75L111.31,221c-4.2,1.49-8.67,1.86-11.7,1l.14-6a18.16,18.16,0,0,0,9.28-.45l-2.92-6.91c-5.07.82-10.85,1.45-13.35-4.47-1.85-4.39-.25-9.5,6-13l-1.94-4.6,4.14-1.75,1.91,4.52a20.33,20.33,0,0,1,9.47-1l.08,6a18.45,18.45,0,0,0-7.24.52l3,7c5-.87,10.74-1.46,13.21,4.37C123.14,210.56,121.57,215.61,115.4,219.14Zm-11.86-16.55-2.48-5.88c-2,1.42-2.35,3-1.77,4.36S101.47,202.78,103.54,202.59Zm11.33,7c-.61-1.45-2.14-1.73-4.19-1.6l2.42,5.72C115,212.35,115.43,210.89,114.87,209.56Z"></path></g><path d="M230.43,114A37.91,37.91,0,1,1,186.8,82.91,37.87,37.87,0,0,1,230.43,114Z" style="fill:#90CAF9"></path><path d="M221.54,115.46a28.89,28.89,0,1,1-33.25-23.68A28.87,28.87,0,0,1,221.54,115.46Z" style="fill:#90CAF9"></path><path d="M221.54,115.46a2.54,2.54,0,0,1-.14-.45c-.08-.33-.18-.77-.32-1.34-.07-.29-.15-.62-.23-1s-.25-.74-.38-1.16a23.1,23.1,0,0,0-1.1-2.83,27.37,27.37,0,0,0-4.43-7,28.82,28.82,0,0,0-21.32-10A28.84,28.84,0,0,0,179,95.37a30.56,30.56,0,0,0-3.4,2.23c-.55.42-1.05.89-1.59,1.34a14.64,14.64,0,0,0-1.5,1.45,31.89,31.89,0,0,0-2.75,3.25,33.82,33.82,0,0,0-2.22,3.72,27.62,27.62,0,0,0-2.74,8.43,28.19,28.19,0,0,0,3,17.78,27.59,27.59,0,0,0,5.34,7.08,26.25,26.25,0,0,0,7,5,28.47,28.47,0,0,0,3.83,1.64,29.68,29.68,0,0,0,3.95,1,28.74,28.74,0,0,0,31.92-17.67,27.77,27.77,0,0,0,1.92-8,21.75,21.75,0,0,0,.11-3c0-.44,0-.85,0-1.22s-.07-.7-.1-1c-.06-.57-.1-1-.13-1.36a2.08,2.08,0,0,1,0-.47,4,4,0,0,1,.08.46c0,.33.11.79.19,1.36,0,.3.08.64.13,1s0,.78,0,1.22a21.49,21.49,0,0,1-.06,3.06,27.11,27.11,0,0,1-1.84,8.15,29,29,0,0,1-17,16.79,29.73,29.73,0,0,1-19.32.3,31,31,0,0,1-3.91-1.66,32.15,32.15,0,0,1-3.73-2.22,32.58,32.58,0,0,1-3.39-2.85,28.52,28.52,0,0,1-5.45-7.23,28.87,28.87,0,0,1-3-18.15,28.36,28.36,0,0,1,2.81-8.61,34.21,34.21,0,0,1,2.27-3.79A31,31,0,0,1,172.1,100a15.34,15.34,0,0,1,1.54-1.48c.55-.46,1.06-.94,1.62-1.36a30.48,30.48,0,0,1,3.48-2.27,29.29,29.29,0,0,1,14.89-3.72,29.07,29.07,0,0,1,21.57,10.33,27.2,27.2,0,0,1,4.39,7.12,21.07,21.07,0,0,1,1,2.87c.13.42.26.81.36,1.17s.14.7.2,1c.11.57.2,1,.27,1.35A3.86,3.86,0,0,1,221.54,115.46Z" style="fill:#263238"></path><g style="opacity:0.30000000000000004"><path d="M221.36,115.79c-.17,0-.5-1.19-1.32-3.3a30.56,30.56,0,0,0-4.71-8.19,29.65,29.65,0,0,0-4.6-4.56A29.12,29.12,0,0,0,204.39,96a25.29,25.29,0,0,0-3.76-1.32,26.88,26.88,0,0,0-4.07-.79,29,29,0,0,0-4.29-.17,31.31,31.31,0,0,0-4.38.52,29.3,29.3,0,0,0-4.25,1.21,27.14,27.14,0,0,0-3.9,1.8,26.81,26.81,0,0,0-3.45,2.29,26.26,26.26,0,0,0-3,2.66,28.61,28.61,0,0,0-6.91,11.9,30.73,30.73,0,0,0-1.21,9.38c.05,2.26.21,3.52,0,3.55s-.58-1.18-.9-3.49a27.09,27.09,0,0,1,.57-9.85,28.74,28.74,0,0,1,7-12.89A25.67,25.67,0,0,1,175,97.85a28.64,28.64,0,0,1,3.7-2.52,28.08,28.08,0,0,1,4.18-2,28.7,28.7,0,0,1,9.32-1.86,29.13,29.13,0,0,1,13,2.6,28.9,28.9,0,0,1,11.36,9.25,27.2,27.2,0,0,1,4.3,8.87C221.45,114.48,221.49,115.77,221.36,115.79Z"></path></g><g style="opacity:0.30000000000000004"><path d="M204.2,127.15l4.86,4.11c-2.81,3.81-7.23,6-12.74,6.27-8,.39-14.54-3.83-16.95-10.55l-5.1.24-.18-3.79,4.42-.22c-.06-.4-.08-.81-.1-1.21a10.1,10.1,0,0,1,0-1.23L174,121l-.18-3.8,5.1-.24c1.76-6.93,7.87-11.75,15.86-12.13,5.52-.26,10.13,1.51,13.28,5l-4.44,4.56a10.37,10.37,0,0,0-8.18-3.32,9.77,9.77,0,0,0-8.7,5.53l11.43-.54.18,3.79-12.56.6c0,.41,0,.82,0,1.22a9.87,9.87,0,0,0,.1,1.22l12.56-.6.18,3.8-11.43.54a9.77,9.77,0,0,0,9.19,4.68A10.24,10.24,0,0,0,204.2,127.15Z"></path></g><path d="M352.66,132.72a37.91,37.91,0,1,1-24.6-47.58A37.86,37.86,0,0,1,352.66,132.72Z" style="fill:#90CAF9"></path><path d="M344.07,130a28.9,28.9,0,1,1-18.75-36.25A28.87,28.87,0,0,1,344.07,130Z" style="fill:#90CAF9"></path><path d="M344.07,130a2.65,2.65,0,0,1,.09-.46c.08-.33.18-.77.32-1.33.07-.3.15-.62.24-1s.12-.77.19-1.21a20.6,20.6,0,0,0,.32-3,27.23,27.23,0,0,0-.74-8.25,28.7,28.7,0,0,0-29.06-22.06,29.44,29.44,0,0,0-4.05.42c-.67.13-1.34.32-2,.47a14.38,14.38,0,0,0-2,.61,31.65,31.65,0,0,0-3.93,1.63,33.59,33.59,0,0,0-3.68,2.29,27.83,27.83,0,0,0-6.29,6.25,30.29,30.29,0,0,0-4.15,8.13,30.83,30.83,0,0,0-1.34,9,27.43,27.43,0,0,0,1.51,8.74,32.82,32.82,0,0,0,1.66,4,31.72,31.72,0,0,0,2.26,3.61,30.41,30.41,0,0,0,2.65,3.2,28.74,28.74,0,0,0,39.52,1.57,27.42,27.42,0,0,0,5.39-6.28,21.28,21.28,0,0,0,1.49-2.65c.19-.39.39-.75.54-1.09s.26-.65.37-.94c.22-.53.39-1,.51-1.27a2.53,2.53,0,0,1,.2-.43,2.62,2.62,0,0,1-.14.45l-.45,1.3-.35.95c-.14.35-.33.71-.52,1.11a20.3,20.3,0,0,1-1.45,2.69,27.49,27.49,0,0,1-5.36,6.42A29.11,29.11,0,0,1,313,150a29.22,29.22,0,0,1-14.21-5.82,29.7,29.7,0,0,1-3.12-2.74,31.65,31.65,0,0,1-2.71-3.26,33,33,0,0,1-2.31-3.68,32,32,0,0,1-1.7-4.09,28,28,0,0,1-1.55-8.92A28.79,28.79,0,0,1,293,104a28.19,28.19,0,0,1,6.44-6.37,26.81,26.81,0,0,1,7.76-4,15,15,0,0,1,2.05-.61c.69-.16,1.37-.35,2.06-.48a30.75,30.75,0,0,1,4.13-.42,29.3,29.3,0,0,1,14.95,3.49,29.12,29.12,0,0,1,14.46,19.05,27.5,27.5,0,0,1,.65,8.34,20,20,0,0,1-.38,3c-.08.44-.14.85-.22,1.21l-.27,1c-.16.56-.29,1-.38,1.32A2.19,2.19,0,0,1,344.07,130Z" style="fill:#263238"></path><g style="opacity:0.30000000000000004"><path d="M343.76,130.19c-.17,0,.1-1.29.34-3.54a31,31,0,0,0-.45-9.44,29.93,29.93,0,0,0-2-6.15,28.4,28.4,0,0,0-6.65-9.15,27.78,27.78,0,0,0-7-4.67,29.65,29.65,0,0,0-4.14-1.55,30.18,30.18,0,0,0-4.33-.87,28.49,28.49,0,0,0-8.41.28,26.53,26.53,0,0,0-3.85,1,28.61,28.61,0,0,0-6.63,3.25,29.5,29.5,0,0,0-5,4.17,30.74,30.74,0,0,0-5.36,7.78c-1,2-1.42,3.24-1.59,3.19s0-1.32.8-3.52a26.88,26.88,0,0,1,5-8.5,29.14,29.14,0,0,1,5.08-4.63,29.8,29.8,0,0,1,7-3.67A28.39,28.39,0,0,1,310.72,93a28.89,28.89,0,0,1,9.07-.39,32.15,32.15,0,0,1,4.67.93,30.13,30.13,0,0,1,4.46,1.68,28.61,28.61,0,0,1,4,2.3,26.87,26.87,0,0,1,3.48,2.81,27.43,27.43,0,0,1,2.89,3.15,28.88,28.88,0,0,1,5.88,13.42,27,27,0,0,1-.24,9.85C344.44,129.06,343.88,130.23,343.76,130.19Z"></path></g><g style="opacity:0.30000000000000004"><path d="M324.68,131.31l-3.65,3c-.65.22-1.18,0-3.72-1.88-.62-.45-1.3-1-2.06-1.47a27.62,27.62,0,0,0,1.69-5.2,7.85,7.85,0,0,0,.13-1.3l4.39,1.18,1.68-6.23-7.88-2.12a13.58,13.58,0,0,1-.53-2.4,6.64,6.64,0,0,1,2-5.08c1.25-1.07,3.05-1.3,5.33-.68a5.28,5.28,0,0,1,3.46,2.37c1.33,2.31.51,5.56.5,5.6l-.22.81,6.21,1.73.23-.83c.06-.23,1.58-5.78-1.1-10.48a11.56,11.56,0,0,0-7.4-5.43c-5.55-1.49-9.15.26-11.19,2a13.08,13.08,0,0,0-4.29,10.53l-2.37-.64L304.25,121l6,1.61a5.37,5.37,0,0,1,.37,1.93,19.67,19.67,0,0,1-1.15,3.55,8.85,8.85,0,0,0-9.46,4.15l-.43.73,5.55,3.26.44-.72c.59-1,1.76-1.82,4-.53a41,41,0,0,1,3.93,2.65,16.77,16.77,0,0,0,5.26,3,7,7,0,0,0,6.4-1.4l3.66-2.95Z"></path></g><path d="M417,201.9a37.92,37.92,0,1,1-49.35-20.83A37.87,37.87,0,0,1,417,201.9Z" style="fill:#90CAF9"></path><path d="M408.63,205.28A28.89,28.89,0,1,1,371,189.41,28.87,28.87,0,0,1,408.63,205.28Z" style="fill:#90CAF9"></path><path d="M408.63,205.28a1.93,1.93,0,0,1-.23-.41l-.61-1.23-.43-.91c-.18-.32-.41-.67-.63-1a21.19,21.19,0,0,0-1.68-2.53,28,28,0,0,0-5.85-5.86,28.69,28.69,0,0,0-36.45,1.63,31.41,31.41,0,0,0-2.84,2.92c-.44.53-.83,1.1-1.25,1.65a12.88,12.88,0,0,0-1.15,1.75,32.08,32.08,0,0,0-2,3.77,33,33,0,0,0-1.36,4.11,28,28,0,0,0-.84,8.83,28.15,28.15,0,0,0,6.77,16.7,27.72,27.72,0,0,0,6.74,5.76,33.47,33.47,0,0,0,3.84,2,31.94,31.94,0,0,0,4.05,1.33,30.36,30.36,0,0,0,4.09.77,30.88,30.88,0,0,0,4.07.11,28.75,28.75,0,0,0,27.31-24.19,27.61,27.61,0,0,0,.12-8.28,21.62,21.62,0,0,0-.55-3c-.1-.43-.18-.83-.28-1.19s-.22-.67-.32-1c-.17-.55-.31-1-.42-1.3a2.46,2.46,0,0,1-.12-.46,3.53,3.53,0,0,1,.18.43l.48,1.29c.1.29.22.61.35,1s.19.75.3,1.18a20,20,0,0,1,.61,3,27.44,27.44,0,0,1,0,8.36,28.62,28.62,0,0,1-3.7,10.43,28.87,28.87,0,0,1-32.25,13.39,31.46,31.46,0,0,1-4.12-1.35,32.65,32.65,0,0,1-3.93-2.05,27.84,27.84,0,0,1-6.89-5.87A28.69,28.69,0,0,1,352.73,218a27.92,27.92,0,0,1,.87-9,31.31,31.31,0,0,1,1.39-4.2,32.5,32.5,0,0,1,2-3.84,15.69,15.69,0,0,1,1.18-1.78c.43-.57.84-1.15,1.28-1.68a30.28,30.28,0,0,1,2.91-3,29.23,29.23,0,0,1,13.72-6.88A29.05,29.05,0,0,1,399.4,193a27.28,27.28,0,0,1,5.84,6,20.34,20.34,0,0,1,1.64,2.58c.22.38.44.73.61,1.06l.41.93c.24.53.42.95.56,1.26A3,3,0,0,1,408.63,205.28Z" style="fill:#263238"></path><g style="opacity:0.30000000000000004"><path d="M408.53,205.65c-.16.07-.75-1.06-2-2.94a31.13,31.13,0,0,0-6.39-7,29.85,29.85,0,0,0-5.48-3.44,29,29,0,0,0-7-2.31,28.2,28.2,0,0,0-4-.47,27.47,27.47,0,0,0-4.14.12,27.15,27.15,0,0,0-4.22.77,27.74,27.74,0,0,0-8.05,3.56,28,28,0,0,0-6.29,5.6,26,26,0,0,0-2.31,3.24,29,29,0,0,0-3,6.74,30.07,30.07,0,0,0-1.14,6.38,30.6,30.6,0,0,0,.86,9.41c.54,2.2,1,3.4.82,3.46s-.83-1-1.64-3.21a26.74,26.74,0,0,1-1.59-9.73,29.58,29.58,0,0,1,.94-6.81,29.11,29.11,0,0,1,3-7.29,26.11,26.11,0,0,1,2.43-3.53,26.67,26.67,0,0,1,3.05-3.26,28.57,28.57,0,0,1,3.66-2.84,30.71,30.71,0,0,1,4.19-2.28,31.19,31.19,0,0,1,4.5-1.57,29,29,0,0,1,4.56-.79,26.68,26.68,0,0,1,4.46-.07A27.88,27.88,0,0,1,388,188a28.65,28.65,0,0,1,13.09,6.55,27.06,27.06,0,0,1,6.13,7.72C408.33,204.35,408.65,205.6,408.53,205.65Z"></path></g><g style="opacity:0.30000000000000004"><polygon points="396.19 200.4 389.53 200.4 382.94 212.96 381.26 212.96 374.26 200.4 367.49 200.39 374.49 212.96 368.99 212.96 368.99 218.87 377.79 218.87 378.58 220.3 368.91 220.3 368.91 226.22 379.19 226.22 379.19 238.59 385.11 238.59 385.11 226.22 395.23 226.22 395.23 220.3 385.67 220.3 386.43 218.87 395.31 218.87 395.31 212.96 389.55 212.96 396.19 200.4"></polygon></g></g><g id="freepik--Character--inject-38"><path d="M294.79,304.4l11.81,54,34.24,35.93-24.06,55.49,9.56,15.43s51.52-57.38,50.1-71.53C374,369.07,321.75,317.38,310,307.67,306.05,304.4,294.79,304.4,294.79,304.4Z" style="fill:#ffbe9d"></path><path d="M358.82,386.26c0,.13-1.21,0-3.09.16a19.34,19.34,0,0,0-12.85,6.48c-1.25,1.42-1.85,2.46-2,2.39a7.29,7.29,0,0,1,1.52-2.75,17.29,17.29,0,0,1,13.27-6.7A7.24,7.24,0,0,1,358.82,386.26Z" style="fill:#eb996e"></path><path d="M296.17,312.76s10.18,30.09,10.47,47c.14,7.92-3.4,53.39-3.4,77.29l16.86,44.65H180.22l15.32-50.05L183,341.17l18.42-21.64Z" style="fill:#455a64"></path><path d="M227.3,187.31c-5.53-5.33-18.19-3.64-21,.29a9.72,9.72,0,0,0-12.42,5.05l-13.33,3.85c-2.28.66-4.66,1.37-6.33,3.05s-2.31,4.63-.72,6.39c-4.69,1.55-6.09,8.77-2.33,12a5.14,5.14,0,0,0,1.25,7.37,51.47,51.47,0,0,0-7.73,15.64c-.69,2.34-1.2,4.94-.2,7.17s4.11,3.61,6,2a6,6,0,0,0,.15,6.5c-2.29.21-2.74,3.79-1.06,5.35s4.25,1.57,6.54,1.37,4.75-.49,6.72.69a2.08,2.08,0,0,1-.65,1.5c-3.72,3.46-4.48,9-1.26,13,.3.37.58.7.82,1,1.45,1.79,4.84,3.3,6.95,4.23,5.36,2.36,8.4,1.64,14.24,2.1-1.33,3.83,8.59,11.46,18.79,2.65,21.81,4.35,37.39,5.52,59.58,4.12,3.17-.2,6.94-.88,8.16-3.81,2.61.52,5.3-.86,7.08-2.84a23.24,23.24,0,0,0,3.8-7,13.81,13.81,0,0,0,9.11-13.08,17.06,17.06,0,0,0,5.64-12.54c5.22-2,7.7-9.08,4.84-13.88a60.08,60.08,0,0,0-7.81-18.24c3.58-1,4.63-6,2.91-9.31s-5.16-5.27-8.42-7.06c2.76.54,4.9-3,4.07-5.71s-3.4-4.41-5.91-5.7a51.21,51.21,0,0,0-11.57-4.27c-1.61-4.7-8.07-9.73-12.68-11.56-18.6-7.35-31.38-8.68-53.26,9.67" style="fill:#263238"></path><path d="M280.19,253.71a6.5,6.5,0,0,1,2.44-1.94h-.2a3.32,3.32,0,0,1,.54-.15,2.6,2.6,0,0,1,2,.07h0a4.83,4.83,0,0,1,2.83,2.05,5.71,5.71,0,0,1-.14,5.91,4.36,4.36,0,0,1-8.1-.78A5.38,5.38,0,0,1,280.19,253.71Z" style="fill:#455a64"></path><path d="M279.79,218.39c-2.26-12.32-12.29-26.58-24.51-23.81L217.8,208.92a7.34,7.34,0,0,0-5.64,8.16l11.11,82.63a22.87,22.87,0,0,0,21.11,19.76h0A22.87,22.87,0,0,0,268.73,295c-.42-5.7-.73-10-.73-10s15.56-4.51,16.39-25.6C284.81,248.9,282.29,232.09,279.79,218.39Z" style="fill:#ffbe9d"></path><path d="M271.71,235a2.68,2.68,0,0,1-2.24,3,2.56,2.56,0,0,1-3-2.07,2.66,2.66,0,0,1,2.24-3A2.55,2.55,0,0,1,271.71,235Z" style="fill:#263238"></path><path d="M275.36,227c-.28.38-2.47-.87-5.33-.52s-4.78,2-5.13,1.71c-.17-.14.09-.81.93-1.58a7.27,7.27,0,0,1,4.05-1.79,7,7,0,0,1,4.3.84C275.14,226.19,275.51,226.78,275.36,227Z" style="fill:#263238"></path><path d="M244,237.55a2.67,2.67,0,0,1-2.25,3,2.54,2.54,0,0,1-3-2.06,2.67,2.67,0,0,1,2.23-3A2.57,2.57,0,0,1,244,237.55Z" style="fill:#263238"></path><path d="M248.28,230.41c-.29.39-2.48-.86-5.33-.52s-4.78,2-5.13,1.71c-.17-.14.09-.8.93-1.57a7.24,7.24,0,0,1,4.05-1.8,7.06,7.06,0,0,1,4.3.85C248.05,229.65,248.43,230.24,248.28,230.41Z" style="fill:#263238"></path><path d="M262,251.42c0-.16,1.7-.67,4.54-1.38.72-.17,1.39-.39,1.45-.9a3.7,3.7,0,0,0-.74-2.11l-2.81-5.3c-3.94-7.55-6.87-13.8-6.57-13.95s3.74,5.84,7.67,13.39c1,1.87,1.87,3.64,2.73,5.34a4.24,4.24,0,0,1,.72,2.82,1.84,1.84,0,0,1-1.07,1.21,4.71,4.71,0,0,1-1.22.32C263.85,251.36,262.06,251.58,262,251.42Z" style="fill:#263238"></path><path d="M268,285a53,53,0,0,1-28.59-4.11s8.41,13.42,28.89,9Z" style="fill:#eb996e"></path><path d="M262.41,258.27a7.11,7.11,0,0,0-6.15-2.39,4.61,4.61,0,0,0-3.52,2.49,4.23,4.23,0,0,0,5.45,5.73,10.51,10.51,0,0,0,3.9-3.1,3.22,3.22,0,0,0,.77-1.18,1.44,1.44,0,0,0-.28-1.43" style="fill:#eb996e"></path><path d="M253.85,254.39c.46-.08.84,3,3.75,4.91s6.18,1.15,6.25,1.58c.07.19-.66.69-2.05.9a7.79,7.79,0,0,1-5.2-1.15,6.74,6.74,0,0,1-2.94-4.14C253.38,255.21,253.64,254.4,253.85,254.39Z" style="fill:#263238"></path><path d="M249,219.56c-.19.81-3.09.78-6.39,1.58s-5.91,2-6.43,1.39c-.24-.31.14-1.1,1.15-2a11.41,11.41,0,0,1,9.77-2.26C248.4,218.64,249.1,219.17,249,219.56Z" style="fill:#263238"></path><path d="M275,217.9c-.43.7-2.48.26-4.85.51s-4.32,1-4.86.33c-.24-.3,0-1,.8-1.71a6.83,6.83,0,0,1,3.81-1.53,6.71,6.71,0,0,1,4,.85C274.83,216.92,275.18,217.55,275,217.9Z" style="fill:#263238"></path><path d="M289.85,227.69a14.22,14.22,0,0,0-4.1-8.69c-1.31-1.22-2.93-2.1-4.12-3.44-2.56-2.9-2.55-7.19-3.81-10.84a15.73,15.73,0,0,0-10.49-9.84c-4-1.11-8.41-.6-12.21-2.27-2.8-1.24-5-3.57-7.92-4.64-5.6-2.08-11.68,1.16-16.58,4.58-.72,4.14,2.12,7.47,4.84,10.67a14.58,14.58,0,0,0,11.12,5c3.26,0,7-1.06,9.44,1.09s2,6.62,4.14,9.27c3.11,3.78,9.42,1.79,13.82,3.95,3.39,1.67,5,5.46,6.94,8.74s5,6.62,8.74,6.16A42.69,42.69,0,0,0,289.85,227.69Z" style="fill:#263238"></path><path d="M239.26,199.36a74,74,0,0,0-27.45,7.06c-2.56,1.22-5.18,2.73-6.51,5.24-1.16,2.2-1.13,4.82-.92,7.31.66,7.77,4.5,17.06,8,24l10.15,5.1c7.35-2.32,3-15,2.13-21.43a15.35,15.35,0,0,0,7.94-14.16A17,17,0,0,0,239.26,199.36Z" style="fill:#263238"></path><path d="M222.18,245.33c-.63-4.43-6.15-4.89-9.81-2.32-2,1.41-3.4,4-2.78,8.72,1.64,12.55,13.9,8.31,13.87,7.94S222.9,250.51,222.18,245.33Z" style="fill:#ffbe9d"></path><path d="M219,255.42c-.06,0-.2.19-.55.4a2.16,2.16,0,0,1-1.63.25c-1.39-.31-2.78-2.27-3.14-4.52a7.4,7.4,0,0,1,.2-3.21,2.53,2.53,0,0,1,1.43-1.89,1.11,1.11,0,0,1,1.36.43c.22.32.17.59.24.6s.24-.25.07-.75a1.4,1.4,0,0,0-.59-.72,1.66,1.66,0,0,0-1.25-.16,3.07,3.07,0,0,0-2,2.24,7.52,7.52,0,0,0-.3,3.6c.41,2.52,2,4.71,3.9,5a2.39,2.39,0,0,0,2-.6C219,255.73,219.05,255.44,219,255.42Z" style="fill:#eb996e"></path><path d="M212.17,258.76a6.58,6.58,0,0,1,2.44-1.94h-.2a3.63,3.63,0,0,1,.54-.15,2.6,2.6,0,0,1,2.05.07h0a4.83,4.83,0,0,1,2.83,2.05,5.71,5.71,0,0,1-.14,5.91,4.36,4.36,0,0,1-8.1-.78A5.41,5.41,0,0,1,212.17,258.76Z" style="fill:#455a64"></path><path d="M218,260.82l0,.17a1.6,1.6,0,0,1-.13.5,3,3,0,0,1-1.37,1.41,7.82,7.82,0,0,1-3.07.88,10.49,10.49,0,0,1-2,0,7.29,7.29,0,0,1-2.25-.51l.14-.08a6.28,6.28,0,0,1-9.68,4.71l.21-.05a2.6,2.6,0,0,1-1.57,1.22,3.58,3.58,0,0,1-2.05,0,3.28,3.28,0,0,1-1.74-1.21,4.39,4.39,0,0,1-.8-2,6.46,6.46,0,0,1,1.07-4.3,19.12,19.12,0,0,1,3.08-3.48l0,.29a4.46,4.46,0,0,1-2.22-2.84,6.53,6.53,0,0,1,.09-3.74,10.24,10.24,0,0,1,2-3.31,31.53,31.53,0,0,1,2.8-2.74V246a4.78,4.78,0,0,1-1.51-3.57,6.86,6.86,0,0,1,1.15-3.85c1.47-2.18,3.74-3.5,5.83-4.74l-.09.23a8.39,8.39,0,0,1,8.33-11l-.18.23a7.24,7.24,0,0,1,1.25-6.25,7.12,7.12,0,0,1,5.13-3l-.14.17a7.07,7.07,0,0,1,2.45-5.7,7,7,0,0,1,5.16-1.85l-.13.14a7,7,0,0,1,.78-3.31,9.05,9.05,0,0,1,1.74-2.45,7.26,7.26,0,0,1,4.17-2.18l.48-.07h.44a6.86,6.86,0,0,1,.81,0,8.08,8.08,0,0,1,1.22.25l.73.25.24.09a.8.8,0,0,1-.25-.06l-.73-.21a8.78,8.78,0,0,0-1.22-.22,6.88,6.88,0,0,0-.8,0h-.43l-.47.07a7.16,7.16,0,0,0-4,2.18,8.89,8.89,0,0,0-1.68,2.42,6.88,6.88,0,0,0-.74,3.19v.14h-.14a6.67,6.67,0,0,0-4.95,1.81,6.81,6.81,0,0,0-2.33,5.46v.16h-.15a6.81,6.81,0,0,0-4.88,2.89,6.89,6.89,0,0,0-1.19,6l.07.24h-.25a8,8,0,0,0-8,10.52l.05.14-.13.08c-2.09,1.24-4.3,2.54-5.7,4.63a6.49,6.49,0,0,0-1.09,3.63,4.36,4.36,0,0,0,1.38,3.28l.17.14-.17.14c-1.93,1.73-3.88,3.54-4.67,5.89a6.12,6.12,0,0,0-.08,3.52,4.06,4.06,0,0,0,2,2.62l.23.11-.18.18a18.59,18.59,0,0,0-3,3.4,6.12,6.12,0,0,0-1,4.08,3.4,3.4,0,0,0,2.3,3,2.77,2.77,0,0,0,3.27-1l.07-.14.14.08a6.11,6.11,0,0,0,6.39.14,6.21,6.21,0,0,0,2.93-4.62v-.14l.13.05a7.09,7.09,0,0,0,2.19.51,10.3,10.3,0,0,0,2,0,7.88,7.88,0,0,0,3-.81,3,3,0,0,0,1.37-1.35C218,261.06,218,260.82,218,260.82Z" style="fill:#455a64"></path><path d="M169,250.85a4.22,4.22,0,0,1-.53-.73,6.46,6.46,0,0,1-.85-2.44,6.35,6.35,0,0,1,.74-4,6.7,6.7,0,0,1,4.35-3.24l-.09.16a8.65,8.65,0,0,1,.68-6.3,8.34,8.34,0,0,1,2.28-2.8,19.62,19.62,0,0,1,3.32-1.88,6.68,6.68,0,0,0,1.58-1.1,4.26,4.26,0,0,0,1-1.64c.47-1.24.54-2.69,1.16-4a7.66,7.66,0,0,1,7.39-4.36l-.2.22a10.13,10.13,0,0,1,10.35-12.26l-.2.23a8.89,8.89,0,0,1,13.18-9.3l-.2,0a12.06,12.06,0,0,1,4.2-3,18.13,18.13,0,0,1,4.45-1.37,21.25,21.25,0,0,1,7.51,0,14.87,14.87,0,0,1,4.57,1.52,8.26,8.26,0,0,1,1.08.67c.24.16.35.25.35.25s-.5-.33-1.48-.84a15.55,15.55,0,0,0-4.56-1.42,21.2,21.2,0,0,0-7.42.12,17.65,17.65,0,0,0-4.37,1.38,11.79,11.79,0,0,0-4.09,3l-.09.1-.11-.07a8.55,8.55,0,0,0-12.65,8.95l0,.23h-.24a9.75,9.75,0,0,0-10,11.8l.06.25-.26,0a7.32,7.32,0,0,0-7,4.14c-.59,1.27-.67,2.7-1.17,4a4.54,4.54,0,0,1-1.12,1.75,7.1,7.1,0,0,1-1.66,1.16,19.18,19.18,0,0,0-3.29,1.83,8,8,0,0,0-2.2,2.68,8.44,8.44,0,0,0-.71,6.1l0,.13-.13,0a6.48,6.48,0,0,0-4.24,3.09,6.3,6.3,0,0,0-.78,3.91,6.75,6.75,0,0,0,.78,2.43C168.83,250.6,169,250.84,169,250.85Z" style="fill:#455a64"></path><path d="M289.77,245.48a1.24,1.24,0,0,1-.13-1,2.56,2.56,0,0,1,.66-1.1,4.36,4.36,0,0,1,1.5-.89,7.49,7.49,0,0,0,1.91-1,3.92,3.92,0,0,0,1.27-2.12,7.8,7.8,0,0,0,.11-2.91c-.12-1-.37-2.13-.45-3.31-.2-2.38.64-4.88,1.06-7.56a10.63,10.63,0,0,0-.13-4.16,5.06,5.06,0,0,0-2.55-3.37,18.73,18.73,0,0,0-4.52-1.18,7.34,7.34,0,0,1-2.34-.89,5.12,5.12,0,0,1-1.74-1.87,24.51,24.51,0,0,1-1.68-4.86,8.76,8.76,0,0,0-1.05-2.33,3.82,3.82,0,0,0-2-1.49,14.1,14.1,0,0,0-3.52-.23,5.33,5.33,0,0,1-1.8-.31,3.54,3.54,0,0,1-1.48-1.07,12.5,12.5,0,0,1-1.55-3.13,7.76,7.76,0,0,0-1.79-2.73,7.62,7.62,0,0,0-5.68-2.22,7.83,7.83,0,0,0-5.2,2.33l-.16.16-.11-.2a12,12,0,0,0-8-5.91,11,11,0,0,0-4.24-.06,10.07,10.07,0,0,0-3.39,1.22,9.2,9.2,0,0,0-4,4.88,3.09,3.09,0,0,0-.13.32l-.05.11s0,0,0-.12.07-.19.11-.33a8.76,8.76,0,0,1,.49-1.26,8.85,8.85,0,0,1,3.43-3.77,10.28,10.28,0,0,1,3.45-1.28,11.27,11.27,0,0,1,4.33,0,12.31,12.31,0,0,1,8.19,6l-.26,0a8.13,8.13,0,0,1,5.43-2.45,8,8,0,0,1,5.95,2.31,8.19,8.19,0,0,1,1.88,2.85,11.83,11.83,0,0,0,1.5,3,3.69,3.69,0,0,0,3,1.25,14,14,0,0,1,3.62.24,4.18,4.18,0,0,1,2.18,1.64,8.84,8.84,0,0,1,1.1,2.43,24.57,24.57,0,0,0,1.65,4.79,4.76,4.76,0,0,0,1.61,1.75,7.18,7.18,0,0,0,2.22.84,19.12,19.12,0,0,1,4.61,1.22,4.88,4.88,0,0,1,1.77,1.54,6.31,6.31,0,0,1,.93,2.07,10.56,10.56,0,0,1,.12,4.29c-.44,2.72-1.28,5.18-1.1,7.5.07,1.15.31,2.24.42,3.29a7.8,7.8,0,0,1-.14,3,4.14,4.14,0,0,1-1.36,2.21,7.63,7.63,0,0,1-2,1,4,4,0,0,0-1.48.84,2.41,2.41,0,0,0-.66,1A1.47,1.47,0,0,0,289.77,245.48Z" style="fill:#455a64"></path><path d="M312.8,224.18l-.14-.22-.4-.68-1.5-2.64c-.66-1.14-1.4-2.58-2.44-4.13a11.18,11.18,0,0,0-4.55-4.21c-1.06-.48-2.26-.76-3.48-1.2a7.89,7.89,0,0,1-1.8-.88,4.36,4.36,0,0,1-1.4-1.55c-.69-1.27-.82-2.75-1.4-4.06a3.52,3.52,0,0,0-1.33-1.64,6.87,6.87,0,0,0-2.1-.79,12.47,12.47,0,0,1-2.29-.69,4,4,0,0,1-1.85-1.66c-.87-1.47-1-3.2-1.43-4.8a6.25,6.25,0,0,0-1-2.26,3.21,3.21,0,0,0-2.1-1.17c-1.68-.22-3.42.49-5.28.33a4.42,4.42,0,0,1-2.52-1.11,11.2,11.2,0,0,1-1.73-2,21.8,21.8,0,0,0-1.54-2.07,4.74,4.74,0,0,0-2-1.45c-1.55-.58-3.23-.09-4.75.39a11.32,11.32,0,0,1-4.76.76,12.74,12.74,0,0,1-4.3-1.59,21.5,21.5,0,0,0-3.86-1.79,13,13,0,0,0-7.49.3,14,14,0,0,0-5.33,3.26,15.68,15.68,0,0,0-2.8,3.84,19,19,0,0,0-1.11,2.81l-.24.75a.9.9,0,0,1-.09.25.88.88,0,0,1,.06-.26c0-.19.11-.45.2-.77a16.45,16.45,0,0,1,1.05-2.85,15.4,15.4,0,0,1,2.77-3.92,14.16,14.16,0,0,1,5.4-3.36,13.27,13.27,0,0,1,7.67-.36,22.33,22.33,0,0,1,3.93,1.8,12.66,12.66,0,0,0,4.18,1.54,10.75,10.75,0,0,0,4.61-.77,16.78,16.78,0,0,1,2.42-.6,5.13,5.13,0,0,1,2.57.22,5.29,5.29,0,0,1,2.13,1.55c.58.66,1.06,1.39,1.57,2.1a11,11,0,0,0,1.66,2,4.06,4.06,0,0,0,2.31,1c1.73.16,3.47-.55,5.3-.32a3.56,3.56,0,0,1,2.34,1.31,6.43,6.43,0,0,1,1.07,2.39c.43,1.65.58,3.35,1.38,4.72a3.74,3.74,0,0,0,1.69,1.51,12,12,0,0,0,2.23.68,7,7,0,0,1,2.19.84,3.85,3.85,0,0,1,1.46,1.79c.6,1.39.72,2.86,1.37,4.05a5.18,5.18,0,0,0,3,2.3c1.19.44,2.41.73,3.5,1.23a11.44,11.44,0,0,1,4.61,4.34c1,1.58,1.75,3,2.39,4.18l1.44,2.67.36.7A1.12,1.12,0,0,1,312.8,224.18Z" style="fill:#455a64"></path><path d="M298.43,212l.23-.05a1.32,1.32,0,0,1,.68.1,2.72,2.72,0,0,1,1.42,2.14,6.66,6.66,0,0,1-.14,1.9,7.59,7.59,0,0,0-.16,2.21,4.85,4.85,0,0,0,1.05,2.26c.55.72,1.23,1.42,1.79,2.29a3.59,3.59,0,0,1,.55,3.15c-.32,1.1-1,2.06-1.34,3.18a4.73,4.73,0,0,0,.6,3.44c.57,1.11,1.36,2.18,1.93,3.42a5.57,5.57,0,0,1,.55,2,5.12,5.12,0,0,1-.32,2.12,24.21,24.21,0,0,1-2.14,3.77,5.77,5.77,0,0,0-1,4.09,19,19,0,0,0,1.83,4.14,6.42,6.42,0,0,1,.64,2.28,5.34,5.34,0,0,1-.43,2.31,19.21,19.21,0,0,1-2.46,3.76,10.34,10.34,0,0,0-1.94,3.73,30.73,30.73,0,0,1-1,4,4.57,4.57,0,0,1-1.16,1.68,5.65,5.65,0,0,1-1.72,1,17.75,17.75,0,0,0-1.7.75,6.55,6.55,0,0,0-1.39,1.1,12.92,12.92,0,0,0-1.86,2.85c-.51,1-1,1.94-1.53,2.81a8.6,8.6,0,0,1-4.15,3.55,9.36,9.36,0,0,1-4.09.7,8.6,8.6,0,0,1-2.56-.55,6,6,0,0,1-.83-.4,9.85,9.85,0,0,0,3.4.8,9.21,9.21,0,0,0,4-.75,8.42,8.42,0,0,0,4-3.49c.53-.86,1-1.82,1.49-2.81a13.31,13.31,0,0,1,1.9-2.93,6.66,6.66,0,0,1,1.46-1.16,14.1,14.1,0,0,1,1.73-.78,5.43,5.43,0,0,0,1.62-.93,4.16,4.16,0,0,0,1.06-1.57,30.3,30.3,0,0,0,1-4,10.46,10.46,0,0,1,2-3.86,19,19,0,0,0,2.41-3.69,4.74,4.74,0,0,0,.39-2.14,5.92,5.92,0,0,0-.6-2.14,18.82,18.82,0,0,1-1.86-4.23,4.87,4.87,0,0,1,.14-2.31,9.29,9.29,0,0,1,.95-2,24,24,0,0,0,2.11-3.71,4.61,4.61,0,0,0,.31-2,5.26,5.26,0,0,0-.51-1.9c-.55-1.2-1.33-2.27-1.91-3.42a5,5,0,0,1-.61-3.68c.34-1.19,1.06-2.14,1.37-3.17a3.34,3.34,0,0,0-.49-2.92c-.54-.84-1.21-1.55-1.76-2.29a5.16,5.16,0,0,1-1.08-2.39,8.1,8.1,0,0,1,.2-2.26,6.47,6.47,0,0,0,.17-1.85,2.67,2.67,0,0,0-1.3-2.09A1.66,1.66,0,0,0,298.43,212Z" style="fill:#455a64"></path><path d="M169.29,250.41a4.45,4.45,0,0,1-1,0,6.85,6.85,0,0,1-2.74-.95,6.73,6.73,0,0,1-2.93-3.51,7.11,7.11,0,0,1,.59-6,18,18,0,0,1,2.32-2.77,8.48,8.48,0,0,0,2.14-3.17,5.58,5.58,0,0,0-.49-4c-.58-1.32-1.42-2.58-2-4a12.39,12.39,0,0,1,8.14-16.43l-.1.31a6.31,6.31,0,0,1-1.29-2.68,7.81,7.81,0,0,1,0-3,8.75,8.75,0,0,1,1.06-2.86,10.45,10.45,0,0,1,2-2.38,19.68,19.68,0,0,1,8-4,29.85,29.85,0,0,1,8.45-1l-.19.19a8.94,8.94,0,0,1,8.85-9.3,14.82,14.82,0,0,1,4.22.78,8.5,8.5,0,0,0,2,.31,5.19,5.19,0,0,0,1.88-.35,15.06,15.06,0,0,0,3.22-1.87,13.85,13.85,0,0,1,3.07-1.69,11,11,0,0,1,3.16-.66,10.73,10.73,0,0,1,5.34,1,11,11,0,0,1,3.26,2.44,10.6,10.6,0,0,1,1.49,2.07,6.8,6.8,0,0,1,.37.79s-.14-.26-.43-.76a11.51,11.51,0,0,0-1.52-2,11.13,11.13,0,0,0-3.25-2.35,10.53,10.53,0,0,0-5.25-1,10.94,10.94,0,0,0-3.08.67,13.41,13.41,0,0,0-3,1.68,15.63,15.63,0,0,1-3.27,1.92,5.14,5.14,0,0,1-2,.37,8.39,8.39,0,0,1-2.05-.3,14.42,14.42,0,0,0-4.13-.76,8.81,8.81,0,0,0-4.2,1.15,8.63,8.63,0,0,0-4.29,7.81v.2h-.2a29.4,29.4,0,0,0-8.34,1,19.24,19.24,0,0,0-7.88,3.89,10.07,10.07,0,0,0-1.9,2.28,8.32,8.32,0,0,0-1,2.74,7.64,7.64,0,0,0,0,2.86,5.88,5.88,0,0,0,1.21,2.51l.19.23-.28.08a12,12,0,0,0-7.93,15.94c.54,1.42,1.37,2.69,2,4A5.84,5.84,0,0,1,168,234a8.7,8.7,0,0,1-2.22,3.27,17.3,17.3,0,0,0-2.31,2.72,6.92,6.92,0,0,0-.62,5.83,6.68,6.68,0,0,0,2.82,3.47,7.07,7.07,0,0,0,2.68,1C169,250.41,169.3,250.39,169.29,250.41Z" style="fill:#263238"></path><path d="M302.23,203a.68.68,0,0,1-.05-.24l-.12-.71c-.11-.64-.26-1.54-.46-2.7s-.48-2.6-.92-4.22a24.78,24.78,0,0,0-2.07-5.32,16.19,16.19,0,0,0-4.42-5.22,11.93,11.93,0,0,0-3.38-1.76,38.64,38.64,0,0,0-4-.84,11.53,11.53,0,0,1-4.11-1.46,18.58,18.58,0,0,1-3.45-3c-1.06-1.11-2.08-2.28-3.25-3.33a12.9,12.9,0,0,0-4-2.51,22.86,22.86,0,0,0-9.25-1.27,58.49,58.49,0,0,0-8.73,1,45.11,45.11,0,0,0-14,5,31.6,31.6,0,0,0-7.8,6.25c-.39.45-.75.83-1,1.19s-.5.67-.7.92l-.43.57-.16.18a1.65,1.65,0,0,1,.12-.21l.41-.58.67-.95c.28-.37.63-.76,1-1.22a31.18,31.18,0,0,1,7.79-6.39,44.93,44.93,0,0,1,14-5.14,57.81,57.81,0,0,1,8.79-1,22.86,22.86,0,0,1,9.4,1.28,13.27,13.27,0,0,1,4.11,2.59c1.19,1.06,2.21,2.25,3.27,3.35a17.63,17.63,0,0,0,3.36,2.9,11,11,0,0,0,4,1.44,34.4,34.4,0,0,1,4,.86,12.33,12.33,0,0,1,3.47,1.82,16.47,16.47,0,0,1,4.47,5.35,24.58,24.58,0,0,1,2,5.39c.42,1.64.67,3.08.86,4.26s.31,2.09.38,2.71c0,.3.06.53.08.71A.93.93,0,0,1,302.23,203Z" style="fill:#263238"></path><path d="M305,314.92S302,303.61,301,303.61l-31.64-8s-10.83,11.93-23.6,10.59-23.16-11.79-23.16-11.79l-35.27,8.42h0c-2.55.51-7.22,2.13-11.67,8.5-5,7.1-31.16,44.09-31.16,44.09l40.61,19.45,121.57-19.24Z" style="fill:#455a64"></path><path d="M301,303.61s10.78,1.1,24,15.09C331.86,326,350.9,346,350.9,346l-36,33.67L301,358.23l.29-36.86Z" style="fill:#455a64"></path><path d="M143.64,314.62c-.72-.58,2.44-12.12,2.44-12.12s-8.37-12.95-8.59-17.13,3.3-12.74,3.3-12.74l24-5.85s7.71,13.57,9.24,18.38-2.64,21.1-2.64,21.1l-4.06,8.36S155.07,323.81,143.64,314.62Z" style="fill:#ffbe9d"></path><path d="M137.54,287.87a49.32,49.32,0,0,1-2.53-5.06c-1.51-3.42-3.38-6.77,0-8.68a4.64,4.64,0,0,1,3.62-.55s-.52-2.87,1.29-3.95a4.11,4.11,0,0,1,3.56-.3s-.58-4.06,2-5.78a6.61,6.61,0,0,1,6.64-.18s-2.06-17.77-2.24-18.71c-.66-3.45.69-6.51,4.31-5.66,1.33.31,2.07,1.64,3.62,7.43s4.06,15.66,4.06,15.66,4.21,7,6.2,10.72,5.92,12.35,6.25,14.62c.85,5.88-2.78,13.66-2.78,13.66l-25.49,1.41S138.51,289.55,137.54,287.87Z" style="fill:#ffbe9d"></path><path d="M139.13,274.35a20.73,20.73,0,0,1,2,2.62l2,2.91a12.19,12.19,0,0,1,1.1,1.82,3.55,3.55,0,0,1,.3,2.31,2.38,2.38,0,0,1-1.61,1.79,3.32,3.32,0,0,1-2.29-.27,10.16,10.16,0,0,1-1.7-1c-.5-.34-1-.67-1.37-1-.83-.61-1.47-1.13-1.91-1.51s-.65-.6-.63-.63,1.06.71,2.76,1.86a23.6,23.6,0,0,0,3,1.83,2.88,2.88,0,0,0,1.93.22,1.84,1.84,0,0,0,1.24-1.43,3.09,3.09,0,0,0-.26-2,12.28,12.28,0,0,0-1-1.76l-1.92-3A19.57,19.57,0,0,1,139.13,274.35Z" style="fill:#eb996e"></path><path d="M160,276.46a7.8,7.8,0,0,1,.27-3.8,7.91,7.91,0,0,1,1.59-3.5c.14.06-.57,1.61-1.07,3.62S160.2,276.46,160,276.46Z" style="fill:#eb996e"></path><path d="M170.15,281.66a17.15,17.15,0,0,0-8.53-4.23,33.6,33.6,0,0,0-9.71-.35c-2.6.22-5.56.86-6.74,3.06s.25,5.19,2.55,6.5,5.14,1.35,7.81,1.12,5.37-.7,8-.31" style="fill:#ffbe9d"></path><path d="M163.54,287.45s-.72-.06-2-.05-3.15.22-5.46.49a24.55,24.55,0,0,1-3.83.16,10.86,10.86,0,0,1-4.3-1,6.39,6.39,0,0,1-3.19-3.52,4.57,4.57,0,0,1-.18-2.52,4.26,4.26,0,0,1,1.41-2.24,9.55,9.55,0,0,1,4.9-1.81,42.94,42.94,0,0,1,4.84-.27,25.8,25.8,0,0,1,8.11,1.16,16.65,16.65,0,0,1,4.87,2.49,12.6,12.6,0,0,1,1.11,1c.24.24.35.37.34.39s-.53-.47-1.58-1.19a18,18,0,0,0-4.86-2.31,26.21,26.21,0,0,0-8-1,42,42,0,0,0-4.78.3,9,9,0,0,0-4.61,1.69,3.8,3.8,0,0,0-1.25,2,4.1,4.1,0,0,0,.16,2.25,5.9,5.9,0,0,0,2.93,3.27,10.49,10.49,0,0,0,4.09,1,27,27,0,0,0,3.76-.09,43.54,43.54,0,0,1,5.5-.34,12.82,12.82,0,0,1,1.5.13A1.68,1.68,0,0,1,163.54,287.45Z" style="fill:#eb996e"></path><path d="M139.32,274.63a141.34,141.34,0,0,1,7.31,12.22,7.63,7.63,0,0,0,2.56,3.16c1,.57,3.37-.46,4.44-.81l-7.37-15.91" style="fill:#ffbe9d"></path><path d="M146.26,273.29a6.23,6.23,0,0,1,.66,1.19c.42.86,1,2,1.63,3.33,1.36,2.83,3.24,6.8,5.32,11.29l.12.25-.27.09c-.8.27-1.65.61-2.57.83a6,6,0,0,1-1.13.16,2,2,0,0,1-.6-.06,1.71,1.71,0,0,1-.56-.26,5.44,5.44,0,0,1-1.48-1.51c-.76-1.13-1.29-2.26-1.89-3.31-1.16-2.12-2.22-4-3.14-5.59s-1.69-2.83-2.23-3.7a8.9,8.9,0,0,1-.8-1.37,9.26,9.26,0,0,1,1,1.26c.59.84,1.42,2.08,2.38,3.64s2.06,3.44,3.24,5.54c.61,1,1.17,2.2,1.89,3.26a5.14,5.14,0,0,0,1.35,1.36,2.35,2.35,0,0,0,1.86.09c.87-.21,1.7-.54,2.52-.82l-.15.34c-2.07-4.49-3.89-8.48-5.16-11.36-.61-1.37-1.1-2.51-1.49-3.39A7.21,7.21,0,0,1,146.26,273.29Z" style="fill:#eb996e"></path><path d="M144.28,268.56q3.56,8.46,7.1,16.91a11.23,11.23,0,0,0,1.91,3.39,4.23,4.23,0,0,0,3.58,1.48,4,4,0,0,0,3.15-3.9,12,12,0,0,0-1.33-5.13,103,103,0,0,1-5.09-15.82" style="fill:#ffbe9d"></path><path d="M153.6,265.49a1.81,1.81,0,0,1,.18.51l.42,1.5c.37,1.29.9,3.17,1.65,5.46s1.72,5,2.94,8a15.66,15.66,0,0,1,1.49,4.84,5,5,0,0,1-.54,2.68,4,4,0,0,1-2.13,2,3.83,3.83,0,0,1-3-.23,5.52,5.52,0,0,1-2.09-1.88,28.52,28.52,0,0,1-2.15-4.59c-1.21-3-2.31-5.61-3.24-7.87s-1.61-4-2.14-5.31l-.56-1.46a1.93,1.93,0,0,1-.16-.52,2,2,0,0,1,.26.48l.65,1.42,2.3,5.26c1,2.25,2.09,4.9,3.35,7.82A29.19,29.19,0,0,0,153,288a5,5,0,0,0,1.9,1.7,3.18,3.18,0,0,0,2.54.2,3.54,3.54,0,0,0,1.86-1.73,4.6,4.6,0,0,0,.49-2.44,15.67,15.67,0,0,0-1.43-4.69c-1.2-3-2.13-5.7-2.84-8s-1.19-4.2-1.49-5.52c-.15-.66-.26-1.17-.33-1.52A2.1,2.1,0,0,1,153.6,265.49Z" style="fill:#eb996e"></path><path d="M144.85,308.21S128.58,353.73,127.94,356l32.67,10.69,11-61.49Z" style="fill:#ffbe9d"></path><path d="M160.69,301.14a3.43,3.43,0,0,1-1.53-.19,8.55,8.55,0,0,1-3.24-1.77,8.07,8.07,0,0,1-2.13-2.91,2.73,2.73,0,0,1-.33-1.43,13,13,0,0,0,2.82,4A14.2,14.2,0,0,0,160.69,301.14Z" style="fill:#eb996e"></path><path d="M127.94,356s-5.34,13.27-5,22.25,5,26,18.12,25.9c9.46-.05,18.93-3.8,29.06-15.4,5.62-6.44,12.72-14.87,12.72-14.87l-30-14.34Z" style="fill:#ffbe9d"></path><path d="M153.8,391.12a3,3,0,0,1,.26-.68l.83-1.91c.38-.81.68-1.88,1.12-3.08s.83-2.61,1.29-4.16c1.8-6.2,3.75-14.92,5.6-24.6s3.28-18.5,4.31-24.88c.5-3.15.91-5.72,1.21-7.56.14-.85.25-1.53.34-2.05a3.74,3.74,0,0,1,.15-.72,4.87,4.87,0,0,1,0,.73l-.24,2.07c-.23,1.79-.58,4.39-1,7.59-.94,6.39-2.33,15.22-4.17,24.92s-3.87,18.41-5.75,24.6c-.49,1.55-.89,3-1.37,4.15s-.8,2.26-1.21,3.07l-.93,1.87A5,5,0,0,1,153.8,391.12Z" style="fill:#eb996e"></path><path d="M180.22,332.44a4.18,4.18,0,0,1,.25.74c.15.54.36,1.26.61,2.15.5,1.89,1.17,4.62,1.92,8,1.51,6.79,3.33,16.22,5.12,26.69s3.14,20,3.95,26.89c.4,3.45.67,6.25.82,8.19.06.94.1,1.68.13,2.24a5.73,5.73,0,0,1,0,.78,4,4,0,0,1-.12-.77c-.06-.56-.13-1.3-.23-2.23-.21-1.93-.54-4.72-1-8.17-.9-6.89-2.34-16.38-4.1-26.85s-3.54-19.89-5-26.7c-.71-3.4-1.32-6.14-1.76-8-.21-.9-.38-1.63-.51-2.17A7,7,0,0,1,180.22,332.44Z" style="fill:#263238"></path><path d="M304.92,385.07a2.55,2.55,0,0,1,0-.58c0-.44.08-1,.13-1.66.13-1.51.31-3.58.52-6.11a184.5,184.5,0,0,0,.73-20.16,103.61,103.61,0,0,0-.94-11.06c-.28-1.68-.51-3.29-.85-4.77-.17-.74-.3-1.46-.47-2.14s-.35-1.33-.51-2c-.3-1.26-.69-2.36-1-3.34s-.6-1.81-.86-2.49-.42-1.15-.56-1.56a2.22,2.22,0,0,1-.17-.56,1.93,1.93,0,0,1,.26.52l.66,1.53c.29.67.62,1.49.94,2.47s.75,2.07,1.07,3.33c.18.63.36,1.28.55,2s.33,1.41.5,2.15c.37,1.49.61,3.1.91,4.79a99,99,0,0,1,1,11.11,159.2,159.2,0,0,1-.88,20.22c-.26,2.57-.5,4.65-.69,6.09-.09.67-.17,1.22-.23,1.65A1.9,1.9,0,0,1,304.92,385.07Z" style="fill:#263238"></path><path d="M290.4,436.53s-1.67-4.4,2-4.75a59.09,59.09,0,0,1,6-.12,7.61,7.61,0,0,1,7.11,5.28L307,441.7l5.05,5.05h5.57l8.71,18.53s-7.49,6.32-11.85,4.26-5-1.72-5-1.72-17.24,10.1-18.46,9.58-3.3-2.38,0-5.23,14.8-10.79,14.8-10.79l-21.94,8.16s-3.65-.85-1.56-3.64,20.54-11.38,20.54-11.38l-1.39-1.5s-17.76,6.62-19,5.75-4.07-2.62-.82-4.88,19.28-8.7,19.28-8.7l-2.44-5.75L296,438.22S290.91,438.12,290.4,436.53Z" style="fill:#ffbe9d"></path><path d="M323.19,453.48c-.24.06-.74-2.08-2.51-4s-3.83-2.6-3.75-2.84,2.44.12,4.38,2.26S323.42,453.5,323.19,453.48Z" style="fill:#eb996e"></path><path d="M308.85,448.22c-.2.15-1.45-1.61-3.8-2.43s-4.43-.24-4.48-.49.44-.4,1.31-.58a6.67,6.67,0,0,1,6.31,2.22C308.76,447.63,308.94,448.16,308.85,448.22Z" style="fill:#eb996e"></path><path d="M309.09,454.88c-.14.2-1.53-.62-3.41-.53s-3.22,1-3.37.77,1.12-1.56,3.34-1.63S309.27,454.73,309.09,454.88Z" style="fill:#eb996e"></path><path d="M312.18,461.07c-.07.24-1.73-.13-3.74.17s-3.5,1.08-3.64.87,1.29-1.41,3.52-1.72S312.27,460.87,312.18,461.07Z" style="fill:#eb996e"></path><path d="M266.73,361.24a3.24,3.24,0,0,1-.27.55l-.84,1.53c-.74,1.33-1.88,3.22-3.34,5.52s-3.28,5-5.4,7.89-4.58,6-7.29,9.16-5.44,6-8,8.57-4.94,4.74-7,6.51-3.76,3.19-5,4.12l-1.39,1.06a2.42,2.42,0,0,1-.51.34,2.83,2.83,0,0,1,.44-.42l1.33-1.14c1.16-1,2.83-2.42,4.84-4.23A165.91,165.91,0,0,0,262,368.64c1.49-2.27,2.67-4.12,3.46-5.42l.93-1.48A2.3,2.3,0,0,1,266.73,361.24Z" style="fill:#263238"></path><path d="M259.9,370.73a1.91,1.91,0,0,1-.42,0,6.83,6.83,0,0,1-1.22-.09,9,9,0,0,1-4.21-2.05,12.43,12.43,0,0,1-3.92-6.25,26.1,26.1,0,0,1-.39-9.82c.11-.91.22-1.83.34-2.78a18.86,18.86,0,0,1,.53-2.9,6,6,0,0,1,1.55-2.7,3.82,3.82,0,0,1,3-1.17,3.7,3.7,0,0,1,2.74,1.92,8.86,8.86,0,0,1,1.06,3.27,26.92,26.92,0,0,1-.37,7.08,30.2,30.2,0,0,1-6.34,13.67,29.2,29.2,0,0,1-5.9,5.45,16.56,16.56,0,0,1-3.63,2,8.73,8.73,0,0,1-4.18.62,6.22,6.22,0,0,1-3.77-1.94,10.38,10.38,0,0,1-2.11-3.59,22.21,22.21,0,0,1-1-3.95,38.12,38.12,0,0,1-.46-4,37.53,37.53,0,0,1,.31-7.74c.19-1.26.43-2.49.73-3.7a9.44,9.44,0,0,1,1.62-3.36,4.32,4.32,0,0,1,1.44-1.21,3.24,3.24,0,0,1,1.86-.32,3.92,3.92,0,0,1,2.8,2.2,7,7,0,0,1,.58,3.4,30.87,30.87,0,0,1-.41,3.26,33.38,33.38,0,0,1-4.27,11.13,33.84,33.84,0,0,1-12.29,11.94,22.9,22.9,0,0,1-2.42,1.22,16.23,16.23,0,0,1-1.84.76l-1.15.4a2.08,2.08,0,0,1-.4.12,2.24,2.24,0,0,1,.38-.17l1.13-.45a16.47,16.47,0,0,0,1.81-.8,25.65,25.65,0,0,0,2.39-1.25,34.15,34.15,0,0,0,12.07-12,33,33,0,0,0,4.16-11,30.59,30.59,0,0,0,.4-3.21,6.66,6.66,0,0,0-.55-3.18,3.43,3.43,0,0,0-2.45-1.93,3.1,3.1,0,0,0-2.86,1.36c-1.47,1.85-1.84,4.38-2.23,6.83a36.54,36.54,0,0,0-.3,7.64,37.5,37.5,0,0,0,.46,3.91,21.53,21.53,0,0,0,1,3.85,9.78,9.78,0,0,0,2,3.41,5.65,5.65,0,0,0,3.45,1.78,8.28,8.28,0,0,0,3.93-.58,16,16,0,0,0,3.52-1.93,27.93,27.93,0,0,0,5.8-5.35,29.76,29.76,0,0,0,6.27-13.43,26.3,26.3,0,0,0,.38-6.93,8.29,8.29,0,0,0-1-3.1,3.25,3.25,0,0,0-2.4-1.72,3.42,3.42,0,0,0-2.68,1A5.54,5.54,0,0,0,251,347a18.93,18.93,0,0,0-.54,2.84c-.12.94-.24,1.87-.35,2.77a26.19,26.19,0,0,0,.3,9.7,12.38,12.38,0,0,0,3.77,6.18,9.13,9.13,0,0,0,4.1,2.1C259.33,370.75,259.9,370.69,259.9,370.73Z" style="fill:#fff"></path><path d="M280.4,373.9a2.52,2.52,0,0,1-.17.75,4.39,4.39,0,0,1-1.24,1.8,5.61,5.61,0,0,1-3.18,1.37,6.26,6.26,0,0,1-4.35-1.38,9.18,9.18,0,0,1-3.13-4.59,18.49,18.49,0,0,1-.68-6.34,34.21,34.21,0,0,1,3.52-14.1,3.9,3.9,0,0,1,1.42-1.46,2.3,2.3,0,0,1,2.06-.08,3.17,3.17,0,0,1,1.37,1.46,5.71,5.71,0,0,1,.56,1.83,14.62,14.62,0,0,1-1.2,7,22.5,22.5,0,0,1-7.46,9.17A41.91,41.91,0,0,1,261,373.4c-.85.42-1.51.72-2,.92a4,4,0,0,1-.71.27,5.12,5.12,0,0,1,.66-.37l1.93-1A46.31,46.31,0,0,0,267.7,369a22.53,22.53,0,0,0,7.24-9.07,14.34,14.34,0,0,0,1.14-6.7,5.5,5.5,0,0,0-.52-1.67,2.63,2.63,0,0,0-1.13-1.22,1.78,1.78,0,0,0-1.59.07,3.47,3.47,0,0,0-1.22,1.27,30.58,30.58,0,0,0-2.53,7,35.91,35.91,0,0,0-1,6.87,18.09,18.09,0,0,0,.61,6.2,8.93,8.93,0,0,0,2.94,4.43,6,6,0,0,0,4.11,1.38,5.44,5.44,0,0,0,3.06-1.24,4.45,4.45,0,0,0,1.28-1.68C280.33,374.16,280.36,373.89,280.4,373.9Z" style="fill:#fff"></path><g style="opacity:0.30000000000000004"><path d="M264.88,364.37a58.69,58.69,0,0,1-23.49,30S255.33,380.9,264.88,364.37Z"></path></g><g style="opacity:0.30000000000000004"><path d="M301.68,330.44v.41c4.5,10.15,4.69,25.45,4.74,36.91a62.84,62.84,0,0,0,4-19.17C310.47,342.62,306.76,333.57,301.68,330.44Z"></path></g></g></svg>